<svg id="Capa_1" enable-background="new 0 0 512 512" height="512" viewBox="0 0 512 512" width="512" xmlns="http://www.w3.org/2000/svg"><g><g><g><g><g><g><g><g><g><g><circle cx="256" cy="256" fill="#7584f2" r="256"/></g></g></g></g></g></g></g></g></g><path d="m512 256c0-12.739-.931-25.26-2.727-37.5l-108.303-108.302-293.423 294.261 103.63 103.63c14.554 2.57 29.532 3.911 44.823 3.911 141.385 0 256-114.615 256-256z" fill="#4855b7"/><g><g><path d="m192.299 380.242-84.752 24.217 24.215-84.753 50.525 10.011z" fill="#fff"/></g><g><path d="m182.289 329.725-74.73 74.731 84.74-24.214z" fill="#e9edf5"/></g><g><path d="m137.971 395.765-21.731-21.73-8.693 30.424z" fill="#dce1eb"/></g><g><path d="m127.11 384.904-19.551 19.552 30.412-8.69z" fill="#bec3d2"/></g><g><path d="m222.191 101.388h85.612v291.235h-85.612z" fill="#ffce00" transform="matrix(.707 .707 -.707 .707 252.272 -115.035)"/></g><g><path d="m134.516 240.744h291.235v42.798h-291.235z" fill="#fdba12" transform="matrix(.707 -.707 .707 .707 -103.314 274.865)"/></g><g><path d="m390.675 181.862-60.537-60.536 23.973-23.974c9.392-9.392 24.62-9.392 34.012 0l26.525 26.524c9.392 9.392 9.392 24.62 0 34.012z" fill="#fe6a16"/></g><g><path d="m401.393 110.621-40.98 40.98 30.262 30.261 23.973-23.974c9.392-9.392 9.392-24.62 0-34.012z" fill="#f24500"/></g></g></g></svg>